0
SECTION
2
HEADER
9
$INSUNITS
70
4
9
$ACADVER
1
AC1014
9
$HANDSEED
5
FFFF
0
ENDSEC
0
SECTION
2
TABLES
0
TABLE
2
VPORT
5
8
100
AcDbSymbolTable
0
ENDTAB
0
TABLE
2
LTYPE
5
5
100
AcDbSymbolTable
0
LTYPE
5
14
100
AcDbSymbolTableRecord
100
AcDbLinetypeTableRecord
2
BYBLOCK
70
0
0
LTYPE
5
15
100
AcDbSymbolTableRecord
100
AcDbLinetypeTableRecord
2
BYLAYER
70
0
0
ENDTAB
0
TABLE
2
LAYER
5
2
100
AcDbSymbolTable
70
2
0
LAYER
5
50
100
AcDbSymbolTableRecord
100
AcDbLayerTableRecord
2
0
70
0
6
CONTINUOUS
0
ENDTAB
0
TABLE
2
STYLE
5
3
100
AcDbSymbolTable
70
1
0
STYLE
5
11
100
AcDbSymbolTableRecord
100
AcDbTextStyleTableRecord
2
STANDARD
70
0
0
ENDTAB
0
TABLE
2
VIEW
5
6
100
AcDbSymbolTable
70
0
0
ENDTAB
0
TABLE
2
UCS
5
7
100
AcDbSymbolTable
70
0
0
ENDTAB
0
TABLE
2
APPID
5
9
100
AcDbSymbolTable
70
2
0
APPID
5
12
100
AcDbSymbolTableRecord
100
AcDbRegAppTableRecord
2
ACAD
70
0
0
ENDTAB
0
TABLE
2
DIMSTYLE
5
A
100
AcDbSymbolTable
70
1
0
ENDTAB
0
TABLE
2
BLOCK_RECORD
5
1
100
AcDbSymbolTable
70
1
0
BLOCK_RECORD
5
1F
100
AcDbSymbolTableRecord
100
AcDbBlockTableRecord
2
*MODEL_SPACE
0
BLOCK_RECORD
5
1B
100
AcDbSymbolTableRecord
100
AcDbBlockTableRecord
2
*PAPER_SPACE
0
ENDTAB
0
ENDSEC
0
SECTION
2
BLOCKS
0
BLOCK
5
20
100
AcDbEntity
100
AcDbBlockBegin
2
*MODEL_SPACE
0
ENDBLK
5
21
100
AcDbEntity
100
AcDbBlockEnd
0
BLOCK
5
1C
100
AcDbEntity
100
AcDbBlockBegin
2
*PAPER_SPACE
0
ENDBLK
5
1D
100
AcDbEntity
100
AcDbBlockEnd
0
ENDSEC
0
SECTION
2
ENTITIES
0
ARC
5
100
100
AcDbEntity
8
0
100
AcDbCircle
10
94.938955455549348
20
14.899074829514172
30
-3.1655863954071631e-40
40
1.1446601726451879
210
9.0395267598307156e-34
220
6.8308643630679061e-33
230
1
100
AcDbArc
50
288.99830287976516
51
289.02669685063074
0
ARC
5
101
100
AcDbEntity
8
0
100
AcDbCircle
10
95.051692384119733
20
14.573374016572496
30
8.4334493271657875e-44
40
0.79999976779195547
210
9.1218074072623052e-34
220
6.8297704957445881e-33
230
1
100
AcDbArc
50
286.9999949910133
51
288.95767615743677
0
LINE
5
102
100
AcDbEntity
8
0
100
AcDbLine
10
95.285589613124216
20
13.808330413415653
30
5.0117156812759455e-33
11
94.6375885140001
21
13.610216414931246
31
0
0
ARC
5
103
100
AcDbEntity
8
0
100
AcDbCircle
10
94.696062838224265
20
13.4189554586267
30
0
40
0.20000000000000265
210
-3.2716514203473305e-48
220
-1.0002439054899522e-48
230
1
100
AcDbArc
50
106.99999499109747
51
134.99999499104587
0
LINE
5
104
100
AcDbEntity
8
0
100
AcDbLine
10
94.554641494350392
20
13.560376827227458
30
-1.0883169333839725e-33
11
93.728578620535089
21
12.734314097846411
31
0
0
ARC
5
105
100
AcDbEntity
8
0
100
AcDbCircle
10
93.162893245039811
20
13.299999572249588
30
-5.0889440080155405e-46
40
0.79999999999998828
210
4.3578816150745141e-33
220
-4.3578823770301579e-33
230
1
100
AcDbArc
50
269.99999499104064
51
314.99999499102779
0
LINE
5
106
100
AcDbEntity
8
0
100
AcDbLine
10
93.162893175101544
20
12.499999572249603
30
-3.486305596841914e-33
11
83.377106737475586
21
12.500000427750336
31
0
0
ARC
5
107
100
AcDbEntity
8
0
100
AcDbCircle
10
83.377106807413796
20
13.300000427750273
30
-4.1566836771353827e-46
40
0.79999999999993587
210
-5.3878426126026619e-40
220
-6.162975822039022e-33
230
1
100
AcDbArc
50
224.99999499104226
51
269.99999499104467
0
LINE
5
108
100
AcDbEntity
8
0
100
AcDbLine
10
82.811421333010799
20
12.734315052254889
30
-3.4863055968419626e-33
11
81.985358603629066
21
13.56037792606913
31
0
0
ARC
5
109
100
AcDbEntity
8
0
100
AcDbCircle
10
81.843937235028292
20
13.418956582195287
30
0
40
0.19999999999999379
210
4.3578816150740057e-33
220
-4.3578823770312089e-33
230
1
100
AcDbArc
50
44.999994991036495
51
72.999974137902839
0
LINE
5
110
100
AcDbEntity
8
0
100
AcDbLine
10
81.902411662303962
20
13.610217506993799
30
5.7866798201744596e-34
11
81.253876727257563
21
13.808495312050855
31
0
0
ARC
5
111
100
AcDbEntity
8
0
100
AcDbCircle
10
81.488307890989176
20
14.573375202355949
30
-1.1814336319549809e-43
40
0.79999983448400858
210
2.9462119712153825e-33
220
-9.0299654841024773e-34
230
1
100
AcDbArc
50
251.04499771590034
51
252.96000756217728
0
ARC
5
112
100
AcDbEntity
8
0
100
AcDbCircle
10
81.601044876703796
20
14.899075996157096
30
0
40
1.1446604610532305
210
0
220
0
230
1
100
AcDbArc
50
250.97460406877417
51
251.00356283781838
0
ARC
5
113
100
AcDbEntity
8
0
100
AcDbCircle
10
81.601044858086368
20
14.899075942127562
30
-1.5566181671576947e-46
40
1.1446604039060573
210
9.0410776373832953e-34
220
-6.8308438629752981e-33
230
1
100
AcDbArc
50
196.15837674919314
51
250.97460406814835
0
ARC
5
114
100
AcDbEntity
8
0
100
AcDbCircle
10
81.270000157640283
20
14.803159301438933
30
-3.0938320625201201e-45
40
0.8000000000035743
210
1.7151155872761552e-33
220
-5.9195142964035089e-33
230
1
100
AcDbArc
50
179.99999502168694
51
196.15837674918708
0
LINE
5
115
100
AcDbEntity
8
0
100
AcDbLine
10
80.470000157636719
20
14.803159371376683
30
1.3720928838214732e-33
11
80.470000358433396
21
17.100000681897676
31
0
0
ARC
5
116
100
AcDbEntity
8
0
100
AcDbCircle
10
82.02000035843335
20
17.100000546392408
30
0
40
1.549999999999971
210
0
220
-0
230
1
100
AcDbArc
50
89.999994991041788
51
179.99999502168694
0
LINE
5
117
100
AcDbEntity
8
0
100
AcDbLine
10
82.02000049393871
20
18.650000546392373
30
0
11
94.520000493938682
21
18.649999453607581
31
0
0
ARC
5
118
100
AcDbEntity
8
0
100
AcDbCircle
10
94.520000358433336
20
17.099999453607566
30
0
40
1.5500000000000171
210
0
220
0
230
1
100
AcDbArc
50
-4.9783130387301148e-06
51
89.999994991042314
0
LINE
5
119
100
AcDbEntity
8
0
100
AcDbLine
10
96.070000358433347
20
17.099999318102277
30
0
11
96.070000157637097
21
14.803158007581281
31
0
0
ARC
5
120
100
AcDbEntity
8
0
100
AcDbCircle
10
95.27000015763727
20
14.803158077519365
30
-5.7934847855958433e-46
40
0.79999999999982585
210
-1.2734661983677312e-39
220
-6.1629758220389645e-33
230
1
100
AcDbArc
50
343.84161323287549
51
359.99999502168697
0
ARC
5
121
100
AcDbEntity
8
0
100
AcDbCircle
10
94.938955473958373
20
14.899074776090387
30
-2.3263744036642471e-46
40
1.1446601161386127
210
1.5758283318605911e-34
220
6.5734795817627144e-33
230
1
100
AcDbArc
50
289.02669685129831
51
343.84161323289084
0
LWPOLYLINE
5
122
100
AcDbEntity
8
0
100
AcDbPolyline
90
4
70
1
43
0.0
10
145.89155769874071
20
24.028079747957392
10
145.89155769874071
20
11.938856434285645
10
158.64870949953183
20
11.93885643428564
10
158.64870949953183
20
24.028079747957403
0
CIRCLE
5
123
100
AcDbEntity
8
0
100
AcDbCircle
10
26.225005313767991
20
-83.093171404733525
30
0
40
1.6000000000000003
210
-8.9633837317652107e-47
220
6.1629758220391547e-33
230
1
0
CIRCLE
5
124
100
AcDbEntity
8
0
100
AcDbCircle
10
26.225005313767298
20
-37.093171404733489
30
0
40
1.6000000000000003
210
-8.9633837317652107e-47
220
6.1629758220391547e-33
230
1
0
CIRCLE
5
125
100
AcDbEntity
8
0
100
AcDbCircle
10
26.225004912037488
20
-92.093171404733582
30
0
40
2.75
210
-8.9633837317652107e-47
220
6.1629758220391547e-33
230
1
0
CIRCLE
5
126
100
AcDbEntity
8
0
100
AcDbCircle
10
26.225004912036994
20
-59.093171404733525
30
0
40
2.75
210
-8.9633837317652107e-47
220
6.1629758220391547e-33
230
1
0
CIRCLE
5
127
100
AcDbEntity
8
0
100
AcDbCircle
10
26.22500491203661
20
-28.093171404733432
30
0
40
2.75
210
-8.9633837317652107e-47
220
6.1629758220391547e-33
230
1
0
CIRCLE
5
128
100
AcDbEntity
8
0
100
AcDbCircle
10
26.225004912036812
20
-46.093171404733503
30
0
40
2.75
210
-8.9633837317652107e-47
220
6.1629758220391547e-33
230
1
0
CIRCLE
5
129
100
AcDbEntity
8
0
100
AcDbCircle
10
26.225004912037232
20
-74.093171404733539
30
0
40
2.75
210
-8.9633837317652107e-47
220
6.1629758220391547e-33
230
1
0
LWPOLYLINE
5
130
100
AcDbEntity
8
0
100
AcDbPolyline
90
4
70
1
43
0.0
10
15.225004912037502
20
-100.09317057026861
10
15.225004912037733
20
-108.09317140473379
10
23.225004912037722
20
-108.09317140473362
10
23.225004912037686
20
-100.09317057026847
0
CIRCLE
5
131
100
AcDbEntity
8
0
100
AcDbCircle
10
125.77002488026316
20
-72.571883966429894
30
0
40
3.0000000000000004
210
-1.9842605207724825e-47
220
6.1629758220391547e-33
230
1
0
CIRCLE
5
132
100
AcDbEntity
8
0
100
AcDbCircle
10
50.770024880263172
20
-147.57188396642991
30
0
40
3.0000000000000004
210
-1.9842605207724825e-47
220
6.1629758220391547e-33
230
1
0
CIRCLE
5
133
100
AcDbEntity
8
0
100
AcDbCircle
10
125.77002488026318
20
-147.57188396642991
30
0
40
3.0000000000000004
210
-1.9842605207724825e-47
220
6.1629758220391547e-33
230
1
0
CIRCLE
5
134
100
AcDbEntity
8
0
100
AcDbCircle
10
50.770024880263165
20
-72.571883966429894
30
0
40
3.0000000000000004
210
-1.9842605207724825e-47
220
6.1629758220391547e-33
230
1
0
CIRCLE
5
135
100
AcDbEntity
8
0
100
AcDbCircle
10
-9.7300000000001496
20
-244.07200000000003
30
0
40
1.6000000000000001
210
2.0526832973504416e-48
220
6.1629758220391547e-33
230
1
0
CIRCLE
5
136
100
AcDbEntity
8
0
100
AcDbCircle
10
88.269999999999825
20
-244.07199999999995
30
0
40
1.6000000000000001
210
2.0526832973504416e-48
220
6.1629758220391547e-33
230
1
0
CIRCLE
5
137
100
AcDbEntity
8
0
100
AcDbCircle
10
186.26999999999978
20
-244.07200000000014
30
0
40
1.6000000000000001
210
2.0526832973504416e-48
220
6.1629758220391547e-33
230
1
0
CIRCLE
5
138
100
AcDbEntity
8
0
100
AcDbCircle
10
-9.7300000000007074
20
-176.8220000000002
30
0
40
1.6000000000000001
210
2.0526832973504416e-48
220
6.1629758220391547e-33
230
1
0
CIRCLE
5
139
100
AcDbEntity
8
0
100
AcDbCircle
10
186.26999999999882
20
-109.57200000000007
30
0
40
1.6000000000000001
210
2.0526832973504416e-48
220
6.1629758220391547e-33
230
1
0
CIRCLE
5
140
100
AcDbEntity
8
0
100
AcDbCircle
10
-9.7300000000011391
20
-42.322000000000173
30
0
40
1.6000000000000001
210
2.0526832973504416e-48
220
6.1629758220391547e-33
230
1
0
CIRCLE
5
141
100
AcDbEntity
8
0
100
AcDbCircle
10
39.269999999999982
20
24.999999999999901
30
0
40
1.6000000000000001
210
2.0526832973504416e-48
220
6.1629758220391547e-33
230
1
0
CIRCLE
5
142
100
AcDbEntity
8
0
100
AcDbCircle
10
130.26999999999998
20
24.99999999999995
30
0
40
1.6000000000000001
210
2.0526832973504416e-48
220
6.1629758220391547e-33
230
1
0
CIRCLE
5
143
100
AcDbEntity
8
0
100
AcDbCircle
10
186.26999999999998
20
24.999999999999861
30
0
40
1.6000000000000001
210
2.0526832973504416e-48
220
6.1629758220391547e-33
230
1
0
CIRCLE
5
144
100
AcDbEntity
8
0
100
AcDbCircle
10
88.269999999999968
20
24.999999999999925
30
0
40
1.6000000000000001
210
2.0526832973504416e-48
220
6.1629758220391547e-33
230
1
0
CIRCLE
5
145
100
AcDbEntity
8
0
100
AcDbCircle
10
-9.7299999999999862
20
24.999999999999968
30
0
40
1.6000000000000001
210
2.0526832973504416e-48
220
6.1629758220391547e-33
230
1
0
CIRCLE
5
146
100
AcDbEntity
8
0
100
AcDbCircle
10
186.2699999999989
20
-42.322000000000074
30
0
40
1.6000000000000001
210
2.0526832973504416e-48
220
6.1629758220391547e-33
230
1
0
CIRCLE
5
147
100
AcDbEntity
8
0
100
AcDbCircle
10
-9.7300000000011728
20
-109.57200000000017
30
0
40
1.6000000000000001
210
2.0526832973504416e-48
220
6.1629758220391547e-33
230
1
0
CIRCLE
5
148
100
AcDbEntity
8
0
100
AcDbCircle
10
186.2699999999993
20
-176.82200000000009
30
0
40
1.6000000000000001
210
2.0526832973504416e-48
220
6.1629758220391547e-33
230
1
0
CIRCLE
5
149
100
AcDbEntity
8
0
100
AcDbCircle
10
137.26999999999981
20
-244.07199999999992
30
0
40
1.6000000000000001
210
2.0526832973504416e-48
220
6.1629758220391547e-33
230
1
0
CIRCLE
5
150
100
AcDbEntity
8
0
100
AcDbCircle
10
39.269999999999811
20
-244.072
30
0
40
1.6000000000000001
210
2.0526832973504416e-48
220
6.1629758220391547e-33
230
1
0
CIRCLE
5
151
100
AcDbEntity
8
0
100
AcDbCircle
10
126.26999999999998
20
15.928079747957307
30
0
40
4.25
210
5.4738221262688167e-48
220
3.0385816786427966e-63
230
1
0
LWPOLYLINE
5
152
100
AcDbEntity
8
0
100
AcDbPolyline
90
8
70
1
43
0.0
10
-12.730000000000015
20
26.999999999999957
42
-0.41421356237309176
10
-11.730000000000018
20
27.999999999999954
10
188.26999999999995
20
28.000000000000057
42
-0.4142135623730781
10
189.26999999999995
20
27.000000000000028
10
189.27000000000007
20
-246.07199999999992
42
-0.41421356237309503
10
188.27000000000004
20
-247.07199999999995
10
-11.729999999999892
20
-247.07200000000003
42
-0.41421356237307422
10
-12.72999999999989
20
-246.07200000000003
0
CIRCLE
5
153
100
AcDbEntity
8
0
100
AcDbCircle
10
116.84971348471997
20
-133.24181206166938
30
0
40
1.4999999999999996
210
-2.3263744036642471e-47
220
1.2913972134261542e-63
230
1
0
CIRCLE
5
154
100
AcDbEntity
8
0
100
AcDbCircle
10
51.249713484718782
20
-87.541812061670925
30
0
40
1.4999999999999996
210
-2.3263744036642471e-47
220
1.2913972134261542e-63
230
1
0
CIRCLE
5
155
100
AcDbEntity
8
0
100
AcDbCircle
10
118.94971348471897
20
-88.441812061669339
30
0
40
1.4999999999999996
210
-2.3263744036642471e-47
220
1.2913972134261542e-63
230
1
0
CIRCLE
5
156
100
AcDbEntity
8
0
100
AcDbCircle
10
50.949713484719894
20
-135.14181206167089
30
0
40
1.4999999999999996
210
-2.3263744036642471e-47
220
1.2913972134261542e-63
230
1
0
CIRCLE
5
157
100
AcDbEntity
8
0
100
AcDbCircle
10
139.50000116000018
20
20.199999839999393
30
0
40
1.6000000000000003
210
-1.2419839074537039e-47
220
6.1629758220391547e-33
230
1
0
CIRCLE
5
158
100
AcDbEntity
8
0
100
AcDbCircle
10
164.50038296000017
20
20.199999839999208
30
0
40
1.6000000000000003
210
-1.2419839074537039e-47
220
6.1629758220391547e-33
230
1
0
CIRCLE
5
159
100
AcDbEntity
8
0
100
AcDbCircle
10
100.70609148564034
20
15.858901541571793
30
0
40
1.5999994400000008
210
2.6633013220344381e-47
220
-3.2276217557415012e-75
230
1
0
CIRCLE
5
160
100
AcDbEntity
8
0
100
AcDbCircle
10
75.705709685640386
20
15.858901541571955
30
0
40
1.5999994400000008
210
2.6633013220344381e-47
220
-3.2276217557415012e-75
230
1
0
CIRCLE
5
161
100
AcDbEntity
8
0
100
AcDbCircle
10
52.769999725305624
20
15.966079987957215
30
0
40
1.6000000000000003
210
-1.2419839074537039e-47
220
6.1629758220391547e-33
230
1
0
CIRCLE
5
162
100
AcDbEntity
8
0
100
AcDbCircle
10
27.769998925305668
20
15.966079987957215
30
0
40
1.6000000000000003
210
-1.2419839074537039e-47
220
6.1629758220391547e-33
230
1
0
CIRCLE
5
163
100
AcDbEntity
8
0
100
AcDbCircle
10
-2.7299996546938159
20
-33.071920252041487
30
0
40
1.6000000000000003
210
-1.2419839074537039e-47
220
6.1629758220391547e-33
230
1
0
CIRCLE
5
164
100
AcDbEntity
8
0
100
AcDbCircle
10
28.270087822775611
20
-6.0717628476087864
30
0
40
1.6000000000000003
210
-1.2419839074537039e-47
220
6.1629758220391547e-33
230
1
0
CIRCLE
5
165
100
AcDbEntity
8
0
100
AcDbCircle
10
113.77000034530556
20
17.928079747957302
30
0
40
1.6000000000000003
210
-1.2419839074537039e-47
220
6.1629758220391547e-33
230
1
0
CIRCLE
5
166
100
AcDbEntity
8
0
100
AcDbCircle
10
179.27000034530556
20
17.928079747957334
30
0
40
1.6000000000000003
210
-1.2419839074537039e-47
220
6.1629758220391547e-33
230
1
0
CIRCLE
5
167
100
AcDbEntity
8
0
100
AcDbCircle
10
179.27000034530522
20
-84.071920252041551
30
0
40
1.6000000000000003
210
-1.2419839074537039e-47
220
6.1629758220391547e-33
230
1
0
CIRCLE
5
168
100
AcDbEntity
8
0
100
AcDbCircle
10
-2.7299996546937595
20
-135.07192025204151
30
0
40
1.6000000000000003
210
-1.2419839074537039e-47
220
6.1629758220391547e-33
230
1
0
CIRCLE
5
169
100
AcDbEntity
8
0
100
AcDbCircle
10
179.27000034530528
20
-186.07192025204154
30
0
40
1.6000000000000003
210
-1.2419839074537039e-47
220
6.1629758220391547e-33
230
1
0
CIRCLE
5
170
100
AcDbEntity
8
0
100
AcDbCircle
10
-2.7299996546937026
20
-237.07192025204151
30
0
40
1.6000000000000003
210
-1.2419839074537039e-47
220
6.1629758220391547e-33
230
1
0
CIRCLE
5
171
100
AcDbEntity
8
0
100
AcDbCircle
10
88.270000345305306
20
-237.07192025204162
30
0
40
1.6000000000000003
210
-1.2419839074537039e-47
220
6.1629758220391547e-33
230
1
0
CIRCLE
5
172
100
AcDbEntity
8
0
100
AcDbCircle
10
179.27000034530533
20
-237.07192025204154
30
0
40
1.6000000000000003
210
-1.2419839074537039e-47
220
6.1629758220391547e-33
230
1
0
CIRCLE
5
173
100
AcDbEntity
8
0
100
AcDbCircle
10
128.77000034530531
20
-237.07192025204159
30
0
40
1.6000000000000003
210
-1.2419839074537039e-47
220
6.1629758220391547e-33
230
1
0
CIRCLE
5
174
100
AcDbEntity
8
0
100
AcDbCircle
10
47.77000034530581
20
-237.07192025204154
30
0
40
1.6000000000000003
210
-1.2419839074537039e-47
220
6.1629758220391547e-33
230
1
0
CIRCLE
5
175
100
AcDbEntity
8
0
100
AcDbCircle
10
-2.7299996546937311
20
-186.07192025204148
30
0
40
1.6000000000000003
210
-1.2419839074537039e-47
220
6.1629758220391547e-33
230
1
0
CIRCLE
5
176
100
AcDbEntity
8
0
100
AcDbCircle
10
179.27000034530525
20
-135.07192025204154
30
0
40
1.6000000000000003
210
-1.2419839074537039e-47
220
6.1629758220391547e-33
230
1
0
CIRCLE
5
177
100
AcDbEntity
8
0
100
AcDbCircle
10
-2.7299996546937875
20
-84.071920252041508
30
0
40
1.6000000000000003
210
-1.2419839074537039e-47
220
6.1629758220391547e-33
230
1
0
CIRCLE
5
178
100
AcDbEntity
8
0
100
AcDbCircle
10
179.27000034530519
20
-33.071920252041529
30
0
40
1.6000000000000003
210
-1.2419839074537039e-47
220
6.1629758220391547e-33
230
1
0
CIRCLE
5
179
100
AcDbEntity
8
0
100
AcDbCircle
10
118.27008782276653
20
-6.0717628476087899
30
0
40
1.6000000000000003
210
-1.2419839074537039e-47
220
6.1629758220391547e-33
230
1
0
CIRCLE
5
180
100
AcDbEntity
8
0
100
AcDbCircle
10
70.270087822775608
20
-6.0717628476087837
30
0
40
1.6000000000000003
210
-1.2419839074537039e-47
220
6.1629758220391547e-33
230
1
0
CIRCLE
5
181
100
AcDbEntity
8
0
100
AcDbCircle
10
-2.7299996546934668
20
17.928079747957412
30
0
40
1.6000000000000003
210
-1.2419839074537039e-47
220
6.1629758220391547e-33
230
1
0
CIRCLE
5
182
100
AcDbEntity
8
0
100
AcDbCircle
10
3.5485429873246144
20
-161.30017628900018
30
0
40
1.6000000000000003
210
-1.2419839074537039e-47
220
6.1629758220391547e-33
230
1
0
CIRCLE
5
183
100
AcDbEntity
8
0
100
AcDbCircle
10
115.54854298732452
20
-161.30017628900032
30
0
40
1.6000000000000003
210
-1.2419839074537039e-47
220
6.1629758220391547e-33
230
1
0
CIRCLE
5
184
100
AcDbEntity
8
0
100
AcDbCircle
10
90.048542987324879
20
-173.80017628899967
30
0
40
1.6000000000000003
210
-1.2419839074537039e-47
220
6.1629758220391547e-33
230
1
0
ENDSEC
0
SECTION
2
OBJECTS
0
DICTIONARY
5
C
100
AcDbDictionary
3
ACAD_GROUP
350
D
3
ACAD_MLINESTYLE
350
17
0
DICTIONARY
5
D
100
AcDbDictionary
0
DICTIONARY
5
1A
330
C
100
AcDbDictionary
0
DICTIONARY
5
17
100
AcDbDictionary
0
ENDSEC
0
EOF
