0
SECTION
2
HEADER
9
$INSUNITS
70
4
9
$ACADVER
1
AC1014
9
$HANDSEED
5
FFFF
0
ENDSEC
0
SECTION
2
TABLES
0
TABLE
2
VPORT
5
8
100
AcDbSymbolTable
0
ENDTAB
0
TABLE
2
LTYPE
5
5
100
AcDbSymbolTable
0
LTYPE
5
14
100
AcDbSymbolTableRecord
100
AcDbLinetypeTableRecord
2
BYBLOCK
70
0
0
LTYPE
5
15
100
AcDbSymbolTableRecord
100
AcDbLinetypeTableRecord
2
BYLAYER
70
0
0
ENDTAB
0
TABLE
2
LAYER
5
2
100
AcDbSymbolTable
70
2
0
LAYER
5
50
100
AcDbSymbolTableRecord
100
AcDbLayerTableRecord
2
0
70
0
6
CONTINUOUS
0
ENDTAB
0
TABLE
2
STYLE
5
3
100
AcDbSymbolTable
70
1
0
STYLE
5
11
100
AcDbSymbolTableRecord
100
AcDbTextStyleTableRecord
2
STANDARD
70
0
0
ENDTAB
0
TABLE
2
VIEW
5
6
100
AcDbSymbolTable
70
0
0
ENDTAB
0
TABLE
2
UCS
5
7
100
AcDbSymbolTable
70
0
0
ENDTAB
0
TABLE
2
APPID
5
9
100
AcDbSymbolTable
70
2
0
APPID
5
12
100
AcDbSymbolTableRecord
100
AcDbRegAppTableRecord
2
ACAD
70
0
0
ENDTAB
0
TABLE
2
DIMSTYLE
5
A
100
AcDbSymbolTable
70
1
0
ENDTAB
0
TABLE
2
BLOCK_RECORD
5
1
100
AcDbSymbolTable
70
1
0
BLOCK_RECORD
5
1F
100
AcDbSymbolTableRecord
100
AcDbBlockTableRecord
2
*MODEL_SPACE
0
BLOCK_RECORD
5
1B
100
AcDbSymbolTableRecord
100
AcDbBlockTableRecord
2
*PAPER_SPACE
0
ENDTAB
0
ENDSEC
0
SECTION
2
BLOCKS
0
BLOCK
5
20
100
AcDbEntity
100
AcDbBlockBegin
2
*MODEL_SPACE
0
ENDBLK
5
21
100
AcDbEntity
100
AcDbBlockEnd
0
BLOCK
5
1C
100
AcDbEntity
100
AcDbBlockBegin
2
*PAPER_SPACE
0
ENDBLK
5
1D
100
AcDbEntity
100
AcDbBlockEnd
0
ENDSEC
0
SECTION
2
ENTITIES
0
CIRCLE
5
100
100
AcDbEntity
8
0
100
AcDbCircle
10
3.3999998569488521
20
-103.99999749660489
30
0
40
1.8000000000000005
210
8.7581154020301067e-47
220
-6.1629758220391547e-33
230
1
0
CIRCLE
5
101
100
AcDbEntity
8
0
100
AcDbCircle
10
2.7299996546938345
20
-84.071920252041465
30
0
40
1.7999999999999994
210
8.7581154020301086e-47
220
2.9045480647464012e-93
230
1
0
CIRCLE
5
102
100
AcDbEntity
8
0
100
AcDbCircle
10
3.3999998569488183
20
-41.999997496604905
30
0
40
1.800000000000002
210
8.7581154020301067e-47
220
-6.1629758220391547e-33
230
1
0
CIRCLE
5
103
100
AcDbEntity
8
0
100
AcDbCircle
10
2.7299996546934571
20
17.928079747957447
30
0
40
1.7999999999999992
210
8.7581154020301086e-47
220
2.9045480647464016e-93
230
1
0
CIRCLE
5
104
100
AcDbEntity
8
0
100
AcDbCircle
10
-18.004824104266941
20
-11.395173535388368
30
0
40
1.8000000000000005
210
8.7581154020301067e-47
220
-6.1629758220391547e-33
230
1
0
CIRCLE
5
105
100
AcDbEntity
8
0
100
AcDbCircle
10
-70.270087822775608
20
-6.0717628476087508
30
0
40
1.8000000000000005
210
8.7581154020301067e-47
220
-6.1629758220391547e-33
230
1
0
CIRCLE
5
106
100
AcDbEntity
8
0
100
AcDbCircle
10
-94.004824104266888
20
-11.395173535388182
30
0
40
1.8000000000000005
210
8.7581154020301067e-47
220
-6.1629758220391547e-33
230
1
0
CIRCLE
5
107
100
AcDbEntity
8
0
100
AcDbCircle
10
-113.77000034530556
20
17.92807974795727
30
0
40
1.7999999999999992
210
8.7581154020301086e-47
220
2.9045480647464016e-93
230
1
0
CIRCLE
5
108
100
AcDbEntity
8
0
100
AcDbCircle
10
-144.00482410426679
20
-11.395173535387492
30
0
40
1.8000000000000005
210
8.7581154020301067e-47
220
-6.1629758220391547e-33
230
1
0
CIRCLE
5
109
100
AcDbEntity
8
0
100
AcDbCircle
10
-173.25964806548282
20
-28.000000417232513
30
0
40
1.8000000000000016
210
1.5934092052602232e-63
220
5.2843944285261321e-110
230
1
0
CIRCLE
5
110
100
AcDbEntity
8
0
100
AcDbCircle
10
-179.27000034530519
20
-33.071920252041593
30
0
40
1.8000000000000016
210
1.5934092052602232e-63
220
5.2843944285261321e-110
230
1
0
CIRCLE
5
111
100
AcDbEntity
8
0
100
AcDbCircle
10
-173.25964806548282
20
-117.00000174343586
30
0
40
1.8000000000000014
210
1.5934092052602232e-63
220
5.2843944285261321e-110
230
1
0
CIRCLE
5
112
100
AcDbEntity
8
0
100
AcDbCircle
10
-179.27000034530519
20
-135.07192025204159
30
0
40
1.800000000000002
210
8.7581154020301067e-47
220
-6.1629758220391547e-33
230
1
0
CIRCLE
5
113
100
AcDbEntity
8
0
100
AcDbCircle
10
3.3999998569488183
20
-197.99999749660492
30
0
40
1.8000000000000007
210
1.5934092052602235e-63
220
-6.1629758220391547e-33
230
1
0
CIRCLE
5
114
100
AcDbEntity
8
0
100
AcDbCircle
10
2.7299996546938345
20
-237.07192025204148
30
0
40
1.7999999999999983
210
-8.7581154020301067e-47
220
-2.9045480647463999e-93
230
1
0
CIRCLE
5
115
100
AcDbEntity
8
0
100
AcDbCircle
10
-18.004824104266834
20
-232.0048214578205
30
0
40
1.7999999999999976
210
1.5934092052602229e-63
220
5.2843944285261315e-110
230
1
0
CIRCLE
5
116
100
AcDbEntity
8
0
100
AcDbCircle
10
-179.27000034530519
20
-186.07192025204159
30
0
40
1.7999999999999996
210
8.7581154020301086e-47
220
-6.1629758220391561e-33
230
1
0
CIRCLE
5
117
100
AcDbEntity
8
0
100
AcDbCircle
10
-173.25964806548285
20
-207.999997496605
30
0
40
1.8000000000000012
210
1.5934092052602235e-63
220
5.2843944285261339e-110
230
1
0
CIRCLE
5
118
100
AcDbEntity
8
0
100
AcDbCircle
10
-79.004824104266845
20
-232.00482145782053
30
0
40
1.7999999999999976
210
1.5934092052602229e-63
220
5.2843944285261315e-110
230
1
0
CIRCLE
5
119
100
AcDbEntity
8
0
100
AcDbCircle
10
-128.77000034530516
20
-237.07192025204162
30
0
40
1.7999999999999983
210
-8.7581154020301067e-47
220
-2.9045480647463999e-93
230
1
0
CIRCLE
5
120
100
AcDbEntity
8
0
100
AcDbCircle
10
-153.0048241042669
20
-232.00482145782053
30
0
40
1.7999999999999976
210
1.5934092052602229e-63
220
5.2843944285261315e-110
230
1
0
CIRCLE
5
121
100
AcDbEntity
8
0
100
AcDbCircle
10
-179.27000034530519
20
-237.07192025204162
30
0
40
1.7999999999999983
210
-8.7581154020301067e-47
220
-2.9045480647463999e-93
230
1
0
CIRCLE
5
122
100
AcDbEntity
8
0
100
AcDbCircle
10
-143.0048241042669
20
-232.0048214578205
30
0
40
1.7999999999999976
210
1.5934092052602229e-63
220
5.2843944285261315e-110
230
1
0
CIRCLE
5
123
100
AcDbEntity
8
0
100
AcDbCircle
10
-88.270000345305192
20
-237.07192025204162
30
0
40
1.7999999999999983
210
-8.7581154020301067e-47
220
-2.9045480647463999e-93
230
1
0
CIRCLE
5
124
100
AcDbEntity
8
0
100
AcDbCircle
10
-69.004824104266859
20
-232.0048214578205
30
0
40
1.7999999999999976
210
1.5934092052602229e-63
220
5.2843944285261315e-110
230
1
0
CIRCLE
5
125
100
AcDbEntity
8
0
100
AcDbCircle
10
-173.25964806548279
20
-197.999997496605
30
0
40
1.8000000000000007
210
1.5934092052602235e-63
220
-6.1629758220391547e-33
230
1
0
CIRCLE
5
126
100
AcDbEntity
8
0
100
AcDbCircle
10
-47.770000345305675
20
-237.07192025204154
30
0
40
1.7999999999999983
210
-8.7581154020301067e-47
220
-2.9045480647463999e-93
230
1
0
CIRCLE
5
127
100
AcDbEntity
8
0
100
AcDbCircle
10
-8.0048241042668522
20
-232.00482145782047
30
0
40
1.7999999999999976
210
1.5934092052602229e-63
220
5.2843944285261315e-110
230
1
0
CIRCLE
5
128
100
AcDbEntity
8
0
100
AcDbCircle
10
3.3999998569488521
20
-207.99999749660492
30
0
40
1.8000000000000012
210
1.5934092052602235e-63
220
5.2843944285261339e-110
230
1
0
CIRCLE
5
129
100
AcDbEntity
8
0
100
AcDbCircle
10
2.7299996546938345
20
-186.07192025204145
30
0
40
1.7999999999999996
210
8.7581154020301086e-47
220
-6.1629758220391561e-33
230
1
0
CIRCLE
5
130
100
AcDbEntity
8
0
100
AcDbCircle
10
-173.25964806548282
20
-126.99999749660498
30
0
40
1.8000000000000016
210
1.5934092052602232e-63
220
5.2843944285261321e-110
230
1
0
CIRCLE
5
131
100
AcDbEntity
8
0
100
AcDbCircle
10
-179.27000034530519
20
-84.071920252041608
30
0
40
1.7999999999999994
210
8.7581154020301086e-47
220
2.9045480647464012e-93
230
1
0
CIRCLE
5
132
100
AcDbEntity
8
0
100
AcDbCircle
10
-173.25964806548282
20
-37.999997496604955
30
0
40
1.8000000000000016
210
1.5934092052602232e-63
220
5.2843944285261321e-110
230
1
0
CIRCLE
5
133
100
AcDbEntity
8
0
100
AcDbCircle
10
-179.27000034530556
20
17.92807974795727
30
0
40
1.7999999999999992
210
8.7581154020301086e-47
220
2.9045480647464016e-93
230
1
0
CIRCLE
5
134
100
AcDbEntity
8
0
100
AcDbCircle
10
-134.00482410426679
20
-11.395173535387597
30
0
40
1.8000000000000005
210
8.7581154020301067e-47
220
-6.1629758220391547e-33
230
1
0
CIRCLE
5
135
100
AcDbEntity
8
0
100
AcDbCircle
10
-118.27008782276653
20
-6.0717628476087508
30
0
40
1.8000000000000005
210
8.7581154020301067e-47
220
-6.1629758220391547e-33
230
1
0
CIRCLE
5
136
100
AcDbEntity
8
0
100
AcDbCircle
10
-84.004824104266902
20
-11.395173535388285
30
0
40
1.8000000000000005
210
8.7581154020301067e-47
220
-6.1629758220391547e-33
230
1
0
CIRCLE
5
137
100
AcDbEntity
8
0
100
AcDbCircle
10
-28.270087822775611
20
-6.0717628476087508
30
0
40
1.8000000000000005
210
8.7581154020301067e-47
220
-6.1629758220391547e-33
230
1
0
CIRCLE
5
138
100
AcDbEntity
8
0
100
AcDbCircle
10
-8.0048241042669588
20
-11.395173535388475
30
0
40
1.8000000000000005
210
8.7581154020301067e-47
220
-6.1629758220391547e-33
230
1
0
CIRCLE
5
139
100
AcDbEntity
8
0
100
AcDbCircle
10
2.7299996546938345
20
-33.071920252041451
30
0
40
1.8000000000000016
210
1.5934092052602232e-63
220
5.2843944285261321e-110
230
1
0
CIRCLE
5
140
100
AcDbEntity
8
0
100
AcDbCircle
10
3.3999998569488521
20
-51.999997496604884
30
0
40
1.7999999999999983
210
-8.7581154020301067e-47
220
-2.9045480647463999e-93
230
1
0
CIRCLE
5
141
100
AcDbEntity
8
0
100
AcDbCircle
10
3.3999998569488183
20
-93.999997496604919
30
0
40
1.7999999999999996
210
8.7581154020301086e-47
220
-6.1629758220391561e-33
230
1
0
CIRCLE
5
142
100
AcDbEntity
8
0
100
AcDbCircle
10
2.7299996546938345
20
-135.07192025204145
30
0
40
1.800000000000002
210
8.7581154020301067e-47
220
-6.1629758220391547e-33
230
1
0
LWPOLYLINE
5
143
100
AcDbEntity
8
0
100
AcDbPolyline
90
26
70
1
43
0.0
10
-9.0090059018024853
20
20.92807974795744
42
-0.41421356237309209
10
-8.0090059018024906
20
21.92807974795744
10
5.7299996546934606
20
21.928079747957444
42
-0.41421356237309664
10
6.729999654693458
20
20.928079747957433
10
6.7299996546938345
20
-240.07192025204145
42
-0.41421356237307422
10
5.7299996546938203
20
-241.07192025204145
10
-182.27000034530516
20
-241.07192025204159
42
-0.4142135623730534
10
-183.27000034530516
20
-240.07192025204159
10
-183.27000034530556
20
20.928079747957291
42
-0.41421356237310414
10
-182.27000034530556
20
21.92807974795727
10
-171.27300109863307
20
21.92807974795722
42
-0.41421356237310414
10
-170.27300109863307
20
20.928079747957284
10
-170.27300109863293
20
1.8999999999987007
10
-118.2999999999999
20
1.8999999999990358
10
-118.30000000000005
20
20.928079747957327
42
-0.41421356237309631
10
-117.30000000000004
20
21.928079747957337
10
-48.648709499531847
20
21.928079747957405
42
-0.41421356237309243
10
-47.648709499531847
20
20.928079747957398
10
-47.648709499531847
20
8.838856434285649
10
-32.891557698740698
20
8.8388564342856473
10
-32.891557698740698
20
20.928079747957426
42
-0.41421356237309243
10
-31.891557698740698
20
21.928079747957426
10
-24.540862244089823
20
21.928079747957426
42
-0.4142135623730937
10
-23.540862244089826
20
20.928079747957426
10
-23.540862244089823
20
9.4860474739714622
10
-9.0090059018024871
20
9.486047473971464
0
CIRCLE
5
144
100
AcDbEntity
8
0
100
AcDbCircle
10
-27.769998925305668
20
15.966079987957251
30
0
40
1.6000000000000001
210
8.7581154020301067e-47
220
-6.1629758220391547e-33
230
1
0
CIRCLE
5
145
100
AcDbEntity
8
0
100
AcDbCircle
10
-52.769999725305624
20
15.966079987957251
30
0
40
1.6000000000000001
210
8.7581154020301067e-47
220
-6.1629758220391547e-33
230
1
0
CIRCLE
5
146
100
AcDbEntity
8
0
100
AcDbCircle
10
-0.27000312530645154
20
-14.071881272042413
30
0
40
1.1999999999999997
210
-4.9280388504180347e-79
220
2.3958797700034918e-141
230
1
0
CIRCLE
5
147
100
AcDbEntity
8
0
100
AcDbCircle
10
-0.27000058530636084
20
-72.071882112042175
30
0
40
1.1999999999999997
210
-2.8220393416923737e-79
220
1.3719995264122531e-141
230
1
0
CIRCLE
5
148
100
AcDbEntity
8
0
100
AcDbCircle
10
-0.27000058530630577
20
-144.07188289204186
30
0
40
1.1999999999999997
210
-4.9280388504180347e-79
220
2.3958797700034918e-141
230
1
0
CIRCLE
5
149
100
AcDbEntity
8
0
100
AcDbCircle
10
-0.27000058530624538
20
-192.07188087204162
30
0
40
1.1999999999999997
210
-2.8220393416923737e-79
220
1.3719995264122531e-141
230
1
0
CIRCLE
5
150
100
AcDbEntity
8
0
100
AcDbCircle
10
-13.270002525306134
20
-234.07188831204149
30
0
40
1.1999999999999988
210
-2.8220393416923761e-79
220
1.3719995264122543e-141
230
1
0
CIRCLE
5
151
100
AcDbEntity
8
0
100
AcDbCircle
10
-73.270001905305804
20
-234.07188831204155
30
0
40
1.2000000000000011
210
8.7581154020301067e-47
220
-6.1629758220391547e-33
230
1
0
CIRCLE
5
152
100
AcDbEntity
8
0
100
AcDbCircle
10
-176.26999910530537
20
-192.07188087204179
30
0
40
1.2000000000000099
210
-2.8220393416923497e-79
220
1.3719995264122415e-141
230
1
0
CIRCLE
5
153
100
AcDbEntity
8
0
100
AcDbCircle
10
-176.2699991053054
20
-144.071882892042
30
0
40
1.2000000000000099
210
-2.8220393416923497e-79
220
1.3719995264122415e-141
230
1
0
CIRCLE
5
154
100
AcDbEntity
8
0
100
AcDbCircle
10
-176.26999910530546
20
-72.071882112042317
30
0
40
1.2000000000000099
210
-2.8220393416923497e-79
220
1.3719995264122415e-141
230
1
0
CIRCLE
5
155
100
AcDbEntity
8
0
100
AcDbCircle
10
-176.26999910530549
20
-48.071881852042409
30
0
40
1.2000000000000099
210
-2.8220393416923497e-79
220
1.3719995264122415e-141
230
1
0
CIRCLE
5
156
100
AcDbEntity
8
0
100
AcDbCircle
10
-163.27000224530562
20
-3.0718804120425824
30
0
40
1.2000000000000099
210
-2.8220393416923497e-79
220
1.3719995264122415e-141
230
1
0
CIRCLE
5
157
100
AcDbEntity
8
0
100
AcDbCircle
10
-13.270002525306403
20
-3.0718804120424692
30
0
40
1.1999999999999988
210
-2.8220393416923761e-79
220
1.3719995264122543e-141
230
1
0
LWPOLYLINE
5
158
100
AcDbEntity
8
0
100
AcDbPolyline
90
4
70
1
43
0.0
10
-78.105467111292327
20
14.026047473971417
10
-78.105467111292256
20
9.4860474739714533
10
-58.10546711129227
20
9.4860474739714551
10
-58.10546711129227
20
14.026047473971461
0
CIRCLE
5
159
100
AcDbEntity
8
0
100
AcDbCircle
10
-97.270002165305968
20
-3.0718804120425309
30
0
40
1.1999999999999922
210
-2.8220393416923904e-79
220
6.1629758220391547e-33
230
1
0
LWPOLYLINE
5
160
100
AcDbEntity
8
0
100
AcDbPolyline
90
4
70
1
43
0.0
10
-164.77244240384618
20
-221.9651872926085
10
-11.772442403845957
20
-221.96518729260876
10
-11.772442403841925
20
-19.965187292609627
10
-164.77244240384221
20
-19.965187292609343
0
CIRCLE
5
161
100
AcDbEntity
8
0
100
AcDbCircle
10
-173.27000256530562
20
7.9281179079573691
30
0
40
1.2000000000000099
210
-2.8220393416923497e-79
220
1.3719995264122415e-141
230
1
0
CIRCLE
5
162
100
AcDbEntity
8
0
100
AcDbCircle
10
-176.27000164530554
20
-14.071881272042543
30
0
40
1.2000000000000099
210
-2.8220393416923497e-79
220
1.3719995264122415e-141
230
1
0
CIRCLE
5
163
100
AcDbEntity
8
0
100
AcDbCircle
10
-176.26999910530546
20
-96.071882372042197
30
0
40
1.2000000000000099
210
-2.8220393416923497e-79
220
1.3719995264122415e-141
230
1
0
CIRCLE
5
164
100
AcDbEntity
8
0
100
AcDbCircle
10
-176.26999910530537
20
-168.07188315204195
30
0
40
1.2000000000000099
210
-2.8220393416923497e-79
220
1.3719995264122415e-141
230
1
0
CIRCLE
5
165
100
AcDbEntity
8
0
100
AcDbCircle
10
-97.270002165305698
20
-234.07188831204155
30
0
40
1.1999999999999922
210
-2.8220393416923904e-79
220
6.1629758220391547e-33
230
1
0
CIRCLE
5
166
100
AcDbEntity
8
0
100
AcDbCircle
10
-163.27000224530536
20
-234.07188831204161
30
0
40
1.2000000000000099
210
-2.8220393416923497e-79
220
1.3719995264122415e-141
230
1
0
CIRCLE
5
167
100
AcDbEntity
8
0
100
AcDbCircle
10
-133.27000128530551
20
-234.07188831204161
30
0
40
1.1999999999999922
210
-2.8220393416923904e-79
220
6.1629758220391547e-33
230
1
0
CIRCLE
5
168
100
AcDbEntity
8
0
100
AcDbCircle
10
-176.27000164530531
20
-214.07190291204165
30
0
40
1.2000000000000099
210
-2.8220393416923497e-79
220
1.3719995264122415e-141
230
1
0
CIRCLE
5
169
100
AcDbEntity
8
0
100
AcDbCircle
10
-43.270003485305949
20
-234.07188831204149
30
0
40
1.2000000000000011
210
8.7581154020301067e-47
220
-6.1629758220391547e-33
230
1
0
CIRCLE
5
170
100
AcDbEntity
8
0
100
AcDbCircle
10
-0.27000058530621474
20
-214.07190291204157
30
0
40
1.1999999999999997
210
-4.9280388504180347e-79
220
2.3958797700034918e-141
230
1
0
CIRCLE
5
171
100
AcDbEntity
8
0
100
AcDbCircle
10
-0.27000058530627558
20
-168.07188315204175
30
0
40
1.1999999999999997
210
-2.8220393416923737e-79
220
1.3719995264122531e-141
230
1
0
CIRCLE
5
172
100
AcDbEntity
8
0
100
AcDbCircle
10
-0.27000058530636617
20
-96.071882372042097
30
0
40
1.1999999999999997
210
-2.8220393416923737e-79
220
1.3719995264122531e-141
230
1
0
CIRCLE
5
173
100
AcDbEntity
8
0
100
AcDbCircle
10
-0.27000058530639104
20
-48.071881852042281
30
0
40
1.1999999999999997
210
-2.8220393416923737e-79
220
1.3719995264122531e-141
230
1
0
CIRCLE
5
174
100
AcDbEntity
8
0
100
AcDbCircle
10
-3.2700047453064096
20
7.9281179079574962
30
0
40
1.2
210
-2.8220393416923731e-79
220
1.3719995264122528e-141
230
1
0
CIRCLE
5
175
100
AcDbEntity
8
0
100
AcDbCircle
10
-43.270003485306212
20
-3.0718804120424936
30
0
40
1.2000000000000011
210
8.7581154020301067e-47
220
-6.1629758220391547e-33
230
1
0
CIRCLE
5
176
100
AcDbEntity
8
0
100
AcDbCircle
10
-133.2700012853058
20
-3.071880412042558
30
0
40
1.1999999999999922
210
-2.8220393416923904e-79
220
6.1629758220391547e-33
230
1
0
ENDSEC
0
SECTION
2
OBJECTS
0
DICTIONARY
5
C
100
AcDbDictionary
3
ACAD_GROUP
350
D
3
ACAD_MLINESTYLE
350
17
0
DICTIONARY
5
D
100
AcDbDictionary
0
DICTIONARY
5
1A
330
C
100
AcDbDictionary
0
DICTIONARY
5
17
100
AcDbDictionary
0
ENDSEC
0
EOF
